# xmcd
#
# Track frame offsets: 
#        150
#        28309
#        49056
#        69979
#        89639
#        119219
#        141643
#        171040
#        205749
#        225791
#        248511
#
# Disc length: 4118 seconds
#
# Revision: 0
# Processed by: cddbd v1.5.2PL0 Copyright (c) Steve Scherf et al.
# Submitted via: ExactAudioCopy v0.95b3
#
DISCID=9b10140b
DTITLE=Joe Pitts - Just A Matter of Time
DYEAR=2007
DGENRE=Blues
TTITLE0=Blue Light Rain
TTITLE1=Nickle and a Dime
TTITLE2=Lonesome Boy From Yesterday
TTITLE3=Just A Matter of Time
TTITLE4=Ice Cream Cakes
TTITLE5=Zambified
TTITLE6=Shoulda Seen It Coming
TTITLE7=Rolling With The Blues
TTITLE8=Sealed Inside Good Intetntions
TTITLE9=Sublime Angel
TTITLE10=Funked Up
EXTD=
EXTT0=
EXTT1=
EXTT2=
EXTT3=
EXTT4=
EXTT5=
EXTT6=
EXTT7=
EXTT8=
EXTT9=
EXTT10=
PLAYORDER=
